# xmcd CD database file
#
# Track frame offsets:
#	150
#	17965
#	38133
#	59113
#	74188
#	92499
#	110988
#	128016
#	146331
#	165518
#	178974
#	197256
#	212278
#	232705
#	258506
#	278578
#	298852
#	322365
#
# Disc length: 4532 seconds
#
# Revision: 0
# Processed by: cddbd v1.5.2PL0 Copyright (c) Steve Scherf et al.
# Submitted via: CDex 1.70beta2
#
DISCID=1511b212
DTITLE=Gerhard Kölbl - Romantic Piano Ballads
DYEAR=1900
DGENRE=Jazz
TTITLE0=A Whiter Shade Of Pale (Procul Harum)
TTITLE1=Angels (Robbie Williams)
TTITLE2=Angie (Rolling Stones)
TTITLE3=Father and Son (Ronan Keating)
TTITLE4=Everything I Do, I Do It For You (Bryan Adams)
TTITLE5=First Day Of My Life (Melanie C)
TTITLE6=Hard To Say I’m Sorry (Chicago)
TTITLE7=Hello (Lionel Richie)
TTITLE8=I Believe (Joana Zimmer)
TTITLE9=Imagine (John Lennon)
TTITLE10=Leningrad (Billy Joel)
TTITLE11=Morning Has Broken (Cat Stevens)
TTITLE12=She’s The One (Robbie Williams)
TTITLE13=Piano Man (Billy Joel)
TTITLE14=Streets Of London (Ralph McTell)
TTITLE15=Tears In Heaven (Eric Clapton)
TTITLE16=Wind Of Change (Scorpions)
TTITLE17=Time After Time (Cyndi Lauper)
EXTD=
EXTT0=
EXTT1=
EXTT2=
EXTT3=
EXTT4=
EXTT5=
EXTT6=
EXTT7=
EXTT8=
EXTT9=
EXTT10=
EXTT11=
EXTT12=
EXTT13=
EXTT14=
EXTT15=
EXTT16=
EXTT17=
PLAYORDER=
